<svg class="size-5 primary-color" role="img" xmlns="http://www.w3.org/2000/svg" viewBox="0 0 336.000000 376.000000"><g transform="translate(0.000000,376.000000) scale(0.100000,-0.100000)" stroke="none"><path d="M4 3737 c3 -13 120 -351 259 -751 l254 -727 -258 -1115 c-143 -613 -259 -1122 -259 -1130 0 -12 35 -14 241 -12 l241 3 489 1215 c269 668 487 1199 483 1180 -3 -19 -117 -566 -253 -1215 l-247 -1180 240 -3 c132 -1 243 1 246 5 4 5 207 553 451 1220 244 666 445 1210 446 1209 2 -1 -451 -2381 -461 -2419 -4 -16 11 -17 241 -15 l245 3 499 1479 c274 813 499 1484 499 1491 0 7 -225 186 -499 399 l-499 386 -241 0 c-133 0 -241 -3 -241 -6 0 -4 97 -196 216 -428 119 -232 223 -434 232 -451 8 -16 -189 177 -438 428 l-452 457 -239 0 c-132 0 -239 -4 -239 -8 0 -5 113 -278 250 -607 138 -329 249 -599 247 -601 -1 -1 -222 272 -490 607 l-487 609 -241 0 -241 0 6 -23z"/></g></svg>
